# xmcd
#
# Track frame offsets: 
#        150
#        13735
#        26402
#        40012
#        67925
#        81342
#        93465
#        105537
#        122530
#        145787
#        157310
#        181707
#        188222
#        210232
#        224820
#        239595
#        264375
#        279410
#        296422
#        315757
#        336790
#
# Disc length: 4781 seconds
#
# Revision: 2
# Processed by: cddbd v1.5.2PL0 Copyright (c) Steve Scherf et al.
# Submitted via: ExactAudioCopy v1.0b3
#
DISCID=2612ab15
DTITLE=B.B. King - The Ultimate Collection
DYEAR=2005
DGENRE=Blues
TTITLE0=Three O’Clock Blues
TTITLE1=Please Love Me
TTITLE2=You Upset Me Baby
TTITLE3=Sweet Sixteen, Parts One and Two
TTITLE4=Rock Me Baby
TTITLE5=How Blue Can You Get?
TTITLE6=Every Day I Have The Blues (live)
TTITLE7=Sweet Little Angel (live)
TTITLE8=Don’t Answer The Door
TTITLE9=Paying The Cost To Be The Boss
TTITLE10=The Thrill Is Gone
TTITLE11=Nobody Loves Me But My Mother
TTITLE12=Chains And Things
TTITLE13=Ain’t Nobody Home
TTITLE14=I Like To Live The Love
TTITLE15=Never Make A Move Too Soon
TTITLE16=Better Not Look Down
TTITLE17=There Must Be A Better World Somewhere
TTITLE18=When Love Comes To Town (7“ version)
TTITLE19=Ten Long Years (Eric Clapton featuring B.B. King)
TTITLE20=I’ll Survive
EXTD=YEAR: 2005
EXTT0=
EXTT1=
EXTT2=
EXTT3=
EXTT4=
EXTT5=
EXTT6=
EXTT7=
EXTT8=
EXTT9=
EXTT10=
EXTT11=
EXTT12=
EXTT13=
EXTT14=
EXTT15=
EXTT16=
EXTT17=
EXTT18=
EXTT19=
EXTT20=
PLAYORDER=
